<svg xmlns="http://www.w3.org/2000/svg" width="2184" height="2500" viewBox="0 0 256 293" preserveAspectRatio="xMidYMid">
  <path d="M226.011 0H29.99C13.459 0 0 13.458 0 30.135v197.778c0 16.677 13.458 30.135 29.989 30.135h165.888l-7.754-27.063 18.725 17.408 17.7 16.384L256 292.571V30.135C256 13.458 242.542 0 226.011 0zm-56.466 191.05s-5.266-6.291-9.655-11.85c19.164-5.413 26.478-17.408 26.478-17.408-5.998 3.95-11.703 6.73-16.823 8.63-7.314 3.073-14.336 5.12-21.211 6.291-14.044 2.633-26.917 1.902-37.888-.146-8.339-1.61-15.507-3.95-21.504-6.29-3.365-1.317-7.022-2.926-10.68-4.974...[truncated for brevity]...m-68.023-68.316c-8.339 0-14.92 7.314-14.92 16.237 0 8.924 6.728 16.238 14.92 16.238 8.339 0 14.921-7.314 14.921-16.238 .147-8.923-6.582-16.237-14.92-16.237m53.394 0c-8.339 0-14.922 7.314-14.922 16.237 0 8.924 6.73 16.238 14.922 16.238 8.338 0 14.92-7.314 14.92-16.238 0-8.923-6.582-16.237-14.92-16.237"/>
</svg>
